<?xml version="1.0" encoding="UTF-8"?>
<svg xmlns="http://www.w3.org/2000/svg" xmlns:xlink="http://www.w3.org/1999/xlink" width="202px" height="202px" viewBox="0 0 202 202" version="1.1">
<g id="surface1">
<path style=" stroke:none;fill-rule:nonzero;fill:rgb(0%,0%,0%);fill-opacity:1;" d="M 102.578125 63.566406 C 101.125 64.386719 100.558594 64.386719 99.546875 63.757812 C 98.664062 63.25 98.160156 63.1875 97.65625 63.691406 C 97.210938 64.136719 96.769531 64.136719 96.140625 63.691406 C 95.570312 63.1875 94.8125 63.1875 93.488281 63.691406 C 92.476562 64.136719 91.277344 64.449219 90.835938 64.386719 C 87.363281 63.882812 87.492188 66.597656 91.027344 70.449219 C 94.5625 74.296875 96.390625 75.183594 101.441406 75.6875 C 101.882812 75.75 102.074219 76.191406 101.820312 76.824219 C 101.441406 77.769531 101.503906 77.832031 102.390625 77.011719 C 102.957031 76.507812 103.273438 75.875 103.144531 75.6875 C 103.019531 75.433594 103.652344 75.054688 104.660156 74.804688 C 105.609375 74.613281 107.4375 73.605469 108.703125 72.53125 C 110.785156 70.890625 111.226562 70.761719 112.804688 71.457031 C 113.75 71.898438 114.761719 72.53125 115.015625 72.910156 C 115.328125 73.289062 115.519531 73.226562 115.519531 72.71875 C 115.519531 72.277344 114.570312 71.519531 113.4375 70.953125 C 112.300781 70.449219 110.40625 68.554688 109.207031 66.785156 C 106.617188 63 105.101562 62.242188 102.578125 63.566406 Z M 95.699219 64.261719 C 96.078125 64.515625 96.582031 66.09375 96.832031 67.859375 C 97.085938 69.5625 97.339844 71.648438 97.464844 72.40625 C 97.71875 73.605469 97.527344 73.730469 96.582031 73.226562 C 95.949219 72.910156 94.8125 71.835938 94.121094 70.953125 C 92.667969 69.121094 92.414062 69.375 93.425781 71.519531 C 93.804688 72.277344 92.984375 71.648438 91.59375 70.070312 C 88.941406 67.164062 88.4375 65.777344 89.828125 65.398438 C 90.207031 65.269531 91.46875 64.890625 92.476562 64.515625 C 94.941406 63.691406 94.875 63.691406 95.699219 64.261719 Z M 101.378906 64.765625 C 105.480469 63.757812 106.175781 63.945312 108.324219 66.976562 L 110.40625 69.941406 L 109.015625 71.140625 C 106.617188 73.289062 104.535156 74.488281 103.273438 74.488281 C 102.074219 74.488281 102.074219 74.425781 103.398438 73.035156 C 104.15625 72.214844 104.789062 71.332031 104.789062 70.953125 C 104.789062 70.636719 104.03125 71.332031 103.144531 72.40625 C 102.261719 73.539062 101.253906 74.488281 100.9375 74.488281 C 100.621094 74.488281 100.304688 73.539062 100.304688 72.40625 L 100.242188 70.382812 L 99.800781 72.277344 L 99.421875 74.171875 L 98.476562 72.027344 C 97.527344 69.625 97.339844 66.660156 98.097656 64.703125 C 98.410156 63.757812 98.664062 63.628906 99.042969 64.324219 C 99.421875 64.890625 100.179688 65.082031 101.378906 64.765625 Z M 101.378906 64.765625 "/>
<path style=" stroke:none;fill-rule:nonzero;fill:rgb(0%,0%,0%);fill-opacity:1;" d="M 94.121094 67.226562 C 94.054688 68.425781 96.203125 72.59375 96.898438 72.59375 C 97.085938 72.59375 96.769531 71.648438 96.140625 70.511719 C 95.507812 69.4375 94.8125 67.921875 94.625 67.226562 L 94.183594 65.964844 Z M 94.121094 67.226562 "/>
<path style=" stroke:none;fill-rule:nonzero;fill:rgb(0%,0%,0%);fill-opacity:1;" d="M 108.257812 74.804688 C 107.25 75.308594 106.808594 75.6875 107.375 75.75 C 107.878906 75.75 108.890625 75.308594 109.585938 74.804688 C 111.035156 73.667969 110.722656 73.667969 108.257812 74.804688 Z M 108.257812 74.804688 "/>
<path style=" stroke:none;fill-rule:nonzero;fill:rgb(0%,0%,0%);fill-opacity:1;" d="M 114.886719 75.75 C 114.320312 76.128906 114.257812 76.382812 114.699219 76.382812 C 115.078125 76.382812 115.644531 76.066406 115.835938 75.75 C 116.339844 74.992188 116.085938 74.992188 114.886719 75.75 Z M 114.886719 75.75 "/>
<path style=" stroke:none;fill-rule:nonzero;fill:rgb(0%,0%,0%);fill-opacity:1;" d="M 75.8125 78.71875 C 75.8125 79.410156 76.003906 79.539062 76.191406 79.03125 C 76.316406 78.652344 76.824219 78.464844 77.140625 78.652344 C 77.582031 78.90625 77.644531 78.78125 77.390625 78.402344 C 76.695312 77.265625 75.75 77.515625 75.8125 78.71875 Z M 75.8125 78.71875 "/>
<path style=" stroke:none;fill-rule:nonzero;fill:rgb(0%,0%,0%);fill-opacity:1;" d="M 98.476562 79.03125 C 98.476562 79.601562 98.789062 80.296875 99.105469 80.484375 C 99.925781 80.988281 99.925781 80.167969 99.105469 78.90625 C 98.601562 78.085938 98.476562 78.085938 98.476562 79.03125 Z M 98.476562 79.03125 "/>
<path style=" stroke:none;fill-rule:nonzero;fill:rgb(0%,0%,0%);fill-opacity:1;" d="M 79.539062 80.484375 C 80.359375 81.367188 81.179688 82.0625 81.304688 82.0625 C 81.496094 82.0625 80.988281 81.367188 80.167969 80.484375 C 79.347656 79.601562 78.527344 78.90625 78.402344 78.90625 C 78.210938 78.90625 78.71875 79.601562 79.539062 80.484375 Z M 79.539062 80.484375 "/>
<path style=" stroke:none;fill-rule:nonzero;fill:rgb(0%,0%,0%);fill-opacity:1;" d="M 119.558594 80.042969 C 119.179688 80.296875 118.675781 81.050781 118.421875 81.683594 C 117.980469 82.945312 117.980469 82.945312 119.371094 81.683594 C 120.820312 80.421875 121.074219 80.421875 122.335938 82 C 122.96875 82.820312 122.96875 82.695312 122.398438 81.242188 C 121.640625 79.539062 120.820312 79.160156 119.558594 80.042969 Z M 119.558594 80.042969 "/>
<path style=" stroke:none;fill-rule:nonzero;fill:rgb(0%,0%,0%);fill-opacity:1;" d="M 116.78125 81.746094 C 116.339844 82.316406 116.085938 82.820312 116.214844 83.007812 C 116.402344 83.136719 116.84375 82.695312 117.285156 82.0625 C 118.171875 80.546875 117.917969 80.421875 116.78125 81.746094 Z M 116.78125 81.746094 "/>
<path style=" stroke:none;fill-rule:nonzero;fill:rgb(0%,0%,0%);fill-opacity:1;" d="M 119.683594 83.136719 C 119.304688 84.019531 119.371094 84.082031 120 83.515625 C 120.441406 83.074219 120.632812 82.566406 120.441406 82.378906 C 120.253906 82.1875 119.875 82.503906 119.683594 83.136719 Z M 119.683594 83.136719 "/>
<path style=" stroke:none;fill-rule:nonzero;fill:rgb(0%,0%,0%);fill-opacity:1;" d="M 98.539062 83.703125 C 98.539062 84.398438 98.726562 84.585938 98.917969 84.082031 C 99.105469 83.640625 99.042969 83.074219 98.855469 82.882812 C 98.664062 82.628906 98.476562 83.007812 98.539062 83.703125 Z M 98.539062 83.703125 "/>
<path style=" stroke:none;fill-rule:nonzero;fill:rgb(0%,0%,0%);fill-opacity:1;" d="M 103.902344 83.703125 C 103.714844 84.207031 103.777344 84.523438 104.09375 84.273438 C 104.410156 84.082031 104.851562 84.335938 104.976562 84.714844 C 105.230469 85.21875 105.355469 85.15625 105.355469 84.460938 C 105.417969 83.007812 104.410156 82.441406 103.902344 83.703125 Z M 103.902344 83.703125 "/>
<path style=" stroke:none;fill-rule:nonzero;fill:rgb(0%,0%,0%);fill-opacity:1;" d="M 120.949219 84.398438 C 120.570312 85.28125 120.632812 85.34375 121.261719 84.777344 C 121.703125 84.335938 121.894531 83.828125 121.703125 83.640625 C 121.515625 83.453125 121.136719 83.765625 120.949219 84.398438 Z M 120.949219 84.398438 "/>
<path style=" stroke:none;fill-rule:nonzero;fill:rgb(0%,0%,0%);fill-opacity:1;" d="M 115.769531 86.734375 C 115.582031 87.617188 115.707031 88.816406 116.085938 89.449219 C 116.527344 90.207031 116.71875 90.332031 116.78125 89.699219 C 116.78125 89.195312 117.285156 88.25 117.855469 87.617188 C 118.800781 86.542969 118.800781 86.355469 118.042969 85.851562 C 116.59375 84.902344 116.214844 85.09375 115.769531 86.734375 Z M 117.414062 87.050781 C 117.414062 87.429688 117.160156 87.871094 116.78125 88.058594 C 116.464844 88.25 116.148438 87.996094 116.148438 87.492188 C 116.148438 86.921875 116.464844 86.480469 116.78125 86.480469 C 117.160156 86.480469 117.414062 86.734375 117.414062 87.050781 Z M 117.414062 87.050781 "/>
<path style=" stroke:none;fill-rule:nonzero;fill:rgb(0%,0%,0%);fill-opacity:1;" d="M 122.210938 86.292969 C 121.832031 87.175781 121.894531 87.238281 122.527344 86.671875 C 122.96875 86.230469 123.15625 85.722656 122.96875 85.535156 C 122.777344 85.34375 122.398438 85.660156 122.210938 86.292969 Z M 122.210938 86.292969 "/>
<path style=" stroke:none;fill-rule:nonzero;fill:rgb(0%,0%,0%);fill-opacity:1;" d="M 89.636719 87.175781 C 89.636719 87.871094 89.953125 88.25 90.269531 88.058594 C 90.648438 87.871094 90.898438 87.933594 90.898438 88.1875 C 90.898438 88.5 91.34375 89.320312 91.847656 90.015625 C 92.476562 90.710938 92.351562 90.140625 91.53125 88.5 C 90.078125 85.535156 89.636719 85.21875 89.636719 87.175781 Z M 89.636719 87.175781 "/>
<path style=" stroke:none;fill-rule:nonzero;fill:rgb(0%,0%,0%);fill-opacity:1;" d="M 97.90625 86.859375 C 97.90625 87.554688 98.097656 87.742188 98.285156 87.238281 C 98.476562 86.796875 98.410156 86.230469 98.222656 86.039062 C 98.03125 85.785156 97.84375 86.164062 97.90625 86.859375 Z M 97.90625 86.859375 "/>
<path style=" stroke:none;fill-rule:nonzero;fill:rgb(0%,0%,0%);fill-opacity:1;" d="M 102.011719 87.429688 C 101.441406 89.070312 101.566406 89.449219 102.324219 88.1875 C 102.703125 87.554688 102.894531 86.859375 102.703125 86.734375 C 102.578125 86.542969 102.261719 86.859375 102.011719 87.429688 Z M 102.011719 87.429688 "/>
<path style=" stroke:none;fill-rule:nonzero;fill:rgb(0%,0%,0%);fill-opacity:1;" d="M 106.050781 87.429688 C 106.050781 87.742188 106.367188 88.5 106.679688 89.007812 C 106.996094 89.511719 107.3125 89.636719 107.3125 89.320312 C 107.3125 88.941406 106.996094 88.25 106.679688 87.742188 C 106.367188 87.238281 106.050781 87.050781 106.050781 87.429688 Z M 106.050781 87.429688 "/>
<path style=" stroke:none;fill-rule:nonzero;fill:rgb(0%,0%,0%);fill-opacity:1;" d="M 119.558594 87.742188 C 118.800781 88.058594 117.980469 88.5625 117.792969 88.941406 C 117.539062 89.257812 118.234375 89.132812 119.304688 88.628906 C 120.316406 88.058594 121.199219 87.554688 121.199219 87.363281 C 121.199219 87.050781 121.199219 87.050781 119.558594 87.742188 Z M 119.558594 87.742188 "/>
<path style=" stroke:none;fill-rule:nonzero;fill:rgb(0%,0%,0%);fill-opacity:1;" d="M 97.277344 90.015625 C 97.277344 90.710938 97.464844 90.898438 97.65625 90.394531 C 97.84375 89.953125 97.78125 89.386719 97.589844 89.195312 C 97.402344 88.941406 97.210938 89.320312 97.277344 90.015625 Z M 97.277344 90.015625 "/>
<path style=" stroke:none;fill-rule:nonzero;fill:rgb(0%,0%,0%);fill-opacity:1;" d="M 89.070312 90.648438 C 89.070312 91.34375 89.257812 91.53125 89.449219 91.027344 C 89.636719 90.585938 89.574219 90.015625 89.386719 89.828125 C 89.195312 89.574219 89.007812 89.953125 89.070312 90.648438 Z M 89.070312 90.648438 "/>
<path style=" stroke:none;fill-rule:nonzero;fill:rgb(0%,0%,0%);fill-opacity:1;" d="M 67.734375 91.089844 C 67.734375 91.53125 68.300781 91.972656 68.996094 91.972656 C 69.691406 92.035156 70.132812 92.035156 70.003906 91.972656 C 69.878906 91.847656 69.3125 91.46875 68.742188 91.027344 C 67.984375 90.457031 67.734375 90.457031 67.734375 91.089844 Z M 67.734375 91.089844 "/>
<path style=" stroke:none;fill-rule:nonzero;fill:rgb(0%,0%,0%);fill-opacity:1;" d="M 101.1875 93.425781 C 101.1875 95.320312 101.316406 96.140625 101.441406 95.128906 C 101.566406 94.183594 101.566406 92.667969 101.441406 91.65625 C 101.316406 90.710938 101.1875 91.53125 101.1875 93.425781 Z M 101.1875 93.425781 "/>
<path style=" stroke:none;fill-rule:nonzero;fill:rgb(0%,0%,0%);fill-opacity:1;" d="M 112.488281 94.433594 C 110.53125 96.519531 108.890625 97.71875 108.449219 97.464844 C 108.070312 97.210938 107.945312 97.277344 108.132812 97.65625 C 108.386719 98.03125 108.007812 99.042969 107.3125 99.800781 L 106.113281 101.316406 L 105.988281 97.84375 L 105.859375 94.371094 L 105.480469 98.476562 C 105.292969 100.746094 105.292969 102.640625 105.546875 102.765625 C 105.796875 102.894531 105.671875 103.714844 105.292969 104.660156 C 104.472656 106.746094 104.410156 107.878906 104.28125 115.328125 L 104.15625 121.199219 L 101.632812 122.460938 C 98.664062 123.976562 96.582031 124.105469 96.582031 122.714844 C 96.582031 122.148438 96.265625 121.957031 95.886719 122.210938 C 94.183594 123.21875 98.917969 111.289062 100.746094 109.773438 C 101.757812 108.953125 101.945312 107.691406 101 108.257812 C 100.621094 108.511719 99.359375 110.59375 98.160156 112.867188 L 96.011719 117.097656 L 95.949219 114.128906 C 95.949219 112.488281 95.761719 111.035156 95.507812 110.910156 C 95.191406 110.722656 95.128906 112.046875 95.253906 113.75 C 95.382812 116.214844 95.253906 116.84375 94.6875 116.464844 C 94.121094 116.148438 93.992188 116.214844 94.308594 116.71875 C 94.5625 117.097656 95.066406 117.285156 95.382812 117.097656 C 96.328125 116.464844 96.011719 117.855469 95.003906 118.863281 C 94.5 119.433594 93.550781 119.683594 92.855469 119.496094 C 92.035156 119.304688 91.027344 119.75 90.015625 120.820312 C 86.859375 123.914062 88.691406 126.882812 92.351562 124.734375 C 93.992188 123.789062 94.371094 123.789062 95.191406 124.546875 C 95.949219 125.367188 96.390625 125.367188 98.664062 124.484375 C 100.117188 123.914062 101.882812 123.09375 102.578125 122.652344 C 103.714844 121.894531 103.902344 122.019531 104.789062 123.851562 C 105.988281 126.4375 108.574219 127.007812 110.027344 124.988281 C 110.910156 123.660156 111.035156 123.660156 112.550781 124.671875 C 114.003906 125.617188 114.320312 125.617188 116.527344 124.671875 C 117.855469 124.105469 119.433594 123.21875 120.0625 122.652344 C 120.695312 122.082031 121.261719 121.894531 121.328125 122.210938 C 121.390625 122.777344 121.578125 124.417969 121.769531 126.0625 C 121.894531 127.261719 123.15625 127.070312 124.796875 125.492188 C 125.617188 124.734375 126.25 124.484375 126.25 124.859375 C 126.25 125.304688 126.566406 125.617188 126.882812 125.617188 C 127.261719 125.617188 127.511719 124.167969 127.511719 122.460938 C 127.511719 120.695312 127.261719 119.304688 126.882812 119.304688 C 126.566406 119.304688 126.25 120.0625 126.25 121.011719 C 126.25 123.03125 124.230469 125.996094 123.28125 125.429688 C 122.90625 125.175781 122.777344 124.292969 122.96875 123.410156 C 123.21875 122.082031 122.96875 121.703125 121.894531 121.390625 C 121.074219 121.199219 120.632812 120.695312 120.820312 120.191406 C 121.011719 119.683594 120.757812 119.304688 120.191406 119.304688 C 119.433594 119.304688 119.242188 119.75 119.433594 120.820312 C 119.683594 122.019531 119.304688 122.589844 117.792969 123.410156 C 115.390625 124.671875 112.742188 124.484375 112.488281 122.90625 C 112.300781 122.148438 112.679688 121.832031 113.75 121.832031 C 116.214844 121.832031 117.726562 119.8125 115.835938 119.054688 C 114.191406 118.421875 111.792969 119.8125 110.910156 121.957031 C 109.207031 125.996094 106.617188 126.691406 105.796875 123.347656 C 105.417969 121.957031 105.734375 121.261719 107.566406 119.371094 C 109.835938 117.035156 112.300781 112.300781 112.363281 110.28125 C 112.363281 109.585938 112.867188 109.207031 113.8125 109.144531 C 114.824219 109.078125 114.949219 109.015625 114.128906 108.765625 C 113.4375 108.574219 112.992188 107.878906 112.992188 106.996094 C 112.992188 106.175781 112.867188 105.101562 112.679688 104.660156 C 112.425781 104.09375 112.929688 103.460938 113.75 103.019531 C 115.140625 102.324219 115.140625 102.324219 113.5 102.640625 C 111.792969 103.019531 111.542969 102.703125 111.792969 100.558594 C 111.792969 100.304688 111.226562 99.863281 110.40625 99.609375 C 109.078125 99.105469 109.207031 98.917969 112.613281 95.382812 C 115.644531 92.164062 116.71875 90.773438 116.023438 90.898438 C 115.898438 90.964844 114.320312 92.542969 112.488281 94.433594 Z M 109.394531 101.820312 C 108.828125 102.578125 108.703125 102.832031 109.207031 102.390625 C 110.53125 101.253906 111.289062 101.441406 110.910156 102.894531 C 110.722656 103.589844 110.847656 104.15625 111.226562 104.15625 C 111.542969 104.15625 111.605469 104.410156 111.414062 104.789062 C 111.226562 105.101562 110.59375 105.417969 110.089844 105.417969 C 109.585938 105.417969 109.269531 105.167969 109.457031 104.851562 C 109.648438 104.597656 109.078125 104.472656 108.132812 104.660156 C 106.746094 104.914062 106.554688 104.789062 106.871094 103.902344 C 107.125 103.273438 107.3125 102.578125 107.3125 102.261719 C 107.3125 101.316406 109.269531 99.738281 109.902344 100.117188 C 110.28125 100.367188 110.089844 101.0625 109.394531 101.820312 Z M 111.289062 108.765625 C 110.847656 112.425781 108.765625 116.96875 106.871094 118.800781 L 105.230469 120.253906 L 105.671875 114.570312 C 106.238281 107.058594 106.554688 105.859375 107.878906 106.429688 C 108.449219 106.617188 109.457031 106.933594 110.152344 107.058594 C 111.164062 107.3125 111.164062 107.25 110.027344 106.746094 C 108.132812 105.921875 108.195312 105.546875 110.089844 105.859375 C 111.480469 106.113281 111.542969 106.429688 111.289062 108.765625 Z M 115.203125 120.570312 C 115.015625 120.882812 114.570312 121.199219 114.191406 121.199219 C 113.878906 121.199219 113.625 120.882812 113.625 120.570312 C 113.625 120.191406 114.066406 119.9375 114.636719 119.9375 C 115.140625 119.9375 115.390625 120.191406 115.203125 120.570312 Z M 93.425781 121.328125 C 93.363281 122.460938 91.847656 124.355469 90.964844 124.355469 C 90.207031 124.355469 90.078125 123.15625 90.648438 121.578125 C 91.089844 120.378906 93.425781 120.191406 93.425781 121.328125 Z M 93.425781 121.328125 "/>
<path style=" stroke:none;fill-rule:nonzero;fill:rgb(0%,0%,0%);fill-opacity:1;" d="M 109.078125 108.386719 C 109.523438 108.574219 110.089844 108.511719 110.28125 108.324219 C 110.53125 108.132812 110.152344 107.945312 109.457031 108.007812 C 108.765625 108.007812 108.574219 108.195312 109.078125 108.386719 Z M 109.078125 108.386719 "/>
<path style=" stroke:none;fill-rule:nonzero;fill:rgb(0%,0%,0%);fill-opacity:1;" d="M 84.714844 92.792969 C 84.714844 93.675781 84.839844 93.992188 85.03125 93.550781 C 85.15625 93.171875 85.15625 92.414062 85.03125 91.972656 C 84.839844 91.59375 84.714844 91.910156 84.714844 92.792969 Z M 84.714844 92.792969 "/>
<path style=" stroke:none;fill-rule:nonzero;fill:rgb(0%,0%,0%);fill-opacity:1;" d="M 88.5 93.425781 C 88.5 94.308594 88.628906 94.625 88.816406 94.183594 C 88.941406 93.804688 88.941406 93.046875 88.816406 92.605469 C 88.628906 92.226562 88.5 92.542969 88.5 93.425781 Z M 88.5 93.425781 "/>
<path style=" stroke:none;fill-rule:nonzero;fill:rgb(0%,0%,0%);fill-opacity:1;" d="M 96.707031 93.425781 C 96.707031 94.308594 96.832031 94.625 97.023438 94.183594 C 97.148438 93.804688 97.148438 93.046875 97.023438 92.605469 C 96.832031 92.226562 96.707031 92.542969 96.707031 93.425781 Z M 96.707031 93.425781 "/>
<path style=" stroke:none;fill-rule:nonzero;fill:rgb(0%,0%,0%);fill-opacity:1;" d="M 104.535156 92.984375 C 104.722656 93.613281 105.101562 93.929688 105.292969 93.742188 C 105.480469 93.550781 105.292969 93.046875 104.851562 92.605469 C 104.21875 92.035156 104.15625 92.097656 104.535156 92.984375 Z M 104.535156 92.984375 "/>
<path style=" stroke:none;fill-rule:nonzero;fill:rgb(0%,0%,0%);fill-opacity:1;" d="M 108.007812 93.171875 C 108.007812 93.867188 108.195312 94.054688 108.386719 93.550781 C 108.574219 93.109375 108.511719 92.542969 108.324219 92.351562 C 108.132812 92.097656 107.945312 92.476562 108.007812 93.171875 Z M 108.007812 93.171875 "/>
<path style=" stroke:none;fill-rule:nonzero;fill:rgb(0%,0%,0%);fill-opacity:1;" d="M 93.488281 94.433594 C 93.488281 95.128906 93.675781 95.320312 93.867188 94.8125 C 94.054688 94.371094 93.992188 93.804688 93.804688 93.613281 C 93.613281 93.363281 93.425781 93.742188 93.488281 94.433594 Z M 93.488281 94.433594 "/>
<path style=" stroke:none;fill-rule:nonzero;fill:rgb(0%,0%,0%);fill-opacity:1;" d="M 81.875 94.5625 C 81.558594 95.003906 83.578125 97.84375 84.207031 97.84375 C 84.460938 97.84375 84.207031 96.960938 83.640625 95.949219 C 82.628906 93.992188 82.316406 93.742188 81.875 94.5625 Z M 81.875 94.5625 "/>
<path style=" stroke:none;fill-rule:nonzero;fill:rgb(0%,0%,0%);fill-opacity:1;" d="M 125.367188 95.066406 C 124.671875 95.570312 124.355469 95.949219 124.734375 95.949219 C 125.554688 95.949219 127.195312 94.8125 126.882812 94.433594 C 126.691406 94.308594 125.996094 94.5625 125.367188 95.066406 Z M 125.367188 95.066406 "/>
<path style=" stroke:none;fill-rule:nonzero;fill:rgb(0%,0%,0%);fill-opacity:1;" d="M 85.03125 96.707031 C 84.839844 97.84375 84.964844 99.042969 85.28125 99.359375 C 85.597656 99.738281 85.851562 98.917969 85.851562 97.339844 C 85.851562 94.183594 85.472656 93.929688 85.03125 96.707031 Z M 85.03125 96.707031 "/>
<path style=" stroke:none;fill-rule:nonzero;fill:rgb(0%,0%,0%);fill-opacity:1;" d="M 96.078125 96.582031 C 96.078125 97.464844 96.203125 97.78125 96.390625 97.339844 C 96.519531 96.960938 96.519531 96.203125 96.390625 95.761719 C 96.203125 95.382812 96.078125 95.699219 96.078125 96.582031 Z M 96.078125 96.582031 "/>
<path style=" stroke:none;fill-rule:nonzero;fill:rgb(0%,0%,0%);fill-opacity:1;" d="M 73.226562 96.328125 C 73.226562 96.707031 74.171875 97.78125 75.308594 98.855469 L 77.328125 100.683594 L 75.433594 98.476562 C 74.425781 97.277344 73.476562 96.140625 73.414062 96.011719 C 73.289062 95.886719 73.226562 96.011719 73.226562 96.328125 Z M 73.226562 96.328125 "/>
<path style=" stroke:none;fill-rule:nonzero;fill:rgb(0%,0%,0%);fill-opacity:1;" d="M 87.871094 97.527344 C 87.871094 98.539062 87.996094 98.917969 88.1875 98.285156 C 88.3125 97.71875 88.3125 96.832031 88.1875 96.390625 C 87.996094 96.011719 87.871094 96.453125 87.871094 97.527344 Z M 87.871094 97.527344 "/>
<path style=" stroke:none;fill-rule:nonzero;fill:rgb(0%,0%,0%);fill-opacity:1;" d="M 121.515625 96.582031 C 120.695312 96.960938 120.570312 97.148438 121.199219 97.148438 C 121.703125 97.148438 122.589844 96.898438 123.09375 96.582031 C 124.230469 95.824219 123.21875 95.824219 121.515625 96.582031 Z M 121.515625 96.582031 "/>
<path style=" stroke:none;fill-rule:nonzero;fill:rgb(0%,0%,0%);fill-opacity:1;" d="M 77.644531 96.769531 C 77.644531 96.960938 78.402344 97.527344 79.285156 98.160156 C 80.230469 98.726562 80.738281 98.917969 80.546875 98.539062 C 80.105469 97.84375 77.644531 96.328125 77.644531 96.769531 Z M 77.644531 96.769531 "/>
<path style=" stroke:none;fill-rule:nonzero;fill:rgb(0%,0%,0%);fill-opacity:1;" d="M 125.050781 98.03125 C 124.230469 99.359375 124.292969 99.359375 125.367188 98.347656 C 125.996094 97.71875 126.375 97.085938 126.1875 96.960938 C 125.996094 96.769531 125.492188 97.277344 125.050781 98.03125 Z M 125.050781 98.03125 "/>
<path style=" stroke:none;fill-rule:nonzero;fill:rgb(0%,0%,0%);fill-opacity:1;" d="M 69.878906 97.84375 C 70.511719 98.539062 70.382812 98.855469 69.25 99.359375 C 66.976562 100.496094 65.019531 105.101562 65.019531 109.523438 C 65.019531 113.8125 66.847656 118.675781 68.492188 118.675781 C 69.3125 118.675781 69.25 118.359375 68.113281 116.84375 C 66.21875 114.257812 65.714844 107.628906 67.164062 103.902344 C 68.617188 100.179688 69.753906 99.234375 71.269531 100.621094 C 72.972656 102.136719 73.667969 105.101562 75.75 119.621094 C 77.960938 134.707031 78.589844 137.109375 80.042969 136.855469 C 80.800781 136.730469 81.621094 134.519531 83.074219 129.089844 C 86.796875 114.824219 88.691406 109.585938 91.214844 106.554688 C 92.097656 105.546875 92.792969 104.34375 92.792969 103.96875 C 92.730469 103.523438 92.351562 103.902344 91.847656 104.789062 C 90.648438 106.933594 90.648438 105.546875 91.910156 102.578125 C 93.046875 99.738281 92.667969 98.03125 91.46875 100.621094 L 90.585938 102.515625 L 90.140625 100.621094 C 89.699219 98.917969 89.699219 98.980469 89.890625 101 C 90.140625 103.523438 89.765625 104.914062 89.007812 104.472656 C 88.753906 104.28125 88.628906 104.789062 88.878906 105.546875 C 89.132812 106.554688 89.007812 106.746094 88.375 106.367188 C 87.871094 106.050781 87.679688 106.113281 87.933594 106.492188 C 88.1875 106.871094 87.363281 110.089844 86.101562 113.6875 C 84.902344 117.285156 83.199219 123.09375 82.316406 126.566406 C 80.421875 134.140625 80.230469 134.707031 79.851562 134.328125 C 79.726562 134.203125 78.71875 128.144531 77.644531 120.820312 C 74.867188 102.011719 74.613281 101.125 70.953125 98.410156 C 69.941406 97.65625 69.4375 97.402344 69.878906 97.84375 Z M 69.878906 97.84375 "/>
<path style=" stroke:none;fill-rule:nonzero;fill:rgb(0%,0%,0%);fill-opacity:1;" d="M 101.757812 98.476562 C 101.757812 99.359375 101.882812 99.675781 102.074219 99.234375 C 102.199219 98.855469 102.199219 98.097656 102.074219 97.65625 C 101.882812 97.277344 101.757812 97.589844 101.757812 98.476562 Z M 101.757812 98.476562 "/>
<path style=" stroke:none;fill-rule:nonzero;fill:rgb(0%,0%,0%);fill-opacity:1;" d="M 117.097656 97.84375 C 116.277344 98.160156 116.214844 98.410156 116.78125 98.410156 C 117.285156 98.410156 118.296875 98.160156 118.992188 97.84375 C 119.8125 97.527344 119.875 97.277344 119.304688 97.277344 C 118.800781 97.277344 117.792969 97.527344 117.097656 97.84375 Z M 117.097656 97.84375 "/>
<path style=" stroke:none;fill-rule:nonzero;fill:rgb(0%,0%,0%);fill-opacity:1;" d="M 93.488281 99.484375 C 93.488281 100.179688 93.675781 100.367188 93.867188 99.863281 C 94.054688 99.421875 93.992188 98.855469 93.804688 98.664062 C 93.613281 98.410156 93.425781 98.789062 93.488281 99.484375 Z M 93.488281 99.484375 "/>
<path style=" stroke:none;fill-rule:nonzero;fill:rgb(0%,0%,0%);fill-opacity:1;" d="M 112.992188 99.105469 C 111.859375 99.863281 112.867188 99.863281 114.570312 99.105469 C 115.390625 98.726562 115.519531 98.539062 114.886719 98.539062 C 114.382812 98.539062 113.5 98.789062 112.992188 99.105469 Z M 112.992188 99.105469 "/>
<path style=" stroke:none;fill-rule:nonzero;fill:rgb(0%,0%,0%);fill-opacity:1;" d="M 120.570312 100.054688 C 119.683594 100.558594 119.304688 100.9375 119.683594 101 C 120 101 120.882812 100.558594 121.578125 100.054688 C 123.09375 98.917969 122.589844 98.855469 120.570312 100.054688 Z M 120.570312 100.054688 "/>
<path style=" stroke:none;fill-rule:nonzero;fill:rgb(0%,0%,0%);fill-opacity:1;" d="M 95.003906 104.472656 C 94.75 107.125 94.6875 109.394531 94.8125 109.585938 C 95.003906 109.710938 95.320312 107.691406 95.570312 105.039062 C 95.824219 102.390625 95.886719 100.117188 95.699219 99.925781 C 95.570312 99.800781 95.253906 101.820312 95.003906 104.472656 Z M 95.003906 104.472656 "/>
<path style=" stroke:none;fill-rule:nonzero;fill:rgb(0%,0%,0%);fill-opacity:1;" d="M 83.324219 100.558594 C 83.324219 100.683594 84.273438 101.566406 85.40625 102.640625 L 87.429688 104.472656 L 85.597656 102.390625 C 83.828125 100.496094 83.324219 100.054688 83.324219 100.558594 Z M 83.324219 100.558594 "/>
<path style=" stroke:none;fill-rule:nonzero;fill:rgb(0%,0%,0%);fill-opacity:1;" d="M 86.796875 101.820312 C 87.429688 102.765625 88.058594 103.398438 88.25 103.210938 C 88.4375 103.019531 87.933594 102.199219 87.175781 101.441406 L 85.722656 100.054688 Z M 86.796875 101.820312 "/>
<path style=" stroke:none;fill-rule:nonzero;fill:rgb(0%,0%,0%);fill-opacity:1;" d="M 102.324219 101.378906 C 102.324219 102.074219 102.515625 102.261719 102.703125 101.757812 C 102.894531 101.316406 102.832031 100.746094 102.640625 100.558594 C 102.453125 100.304688 102.261719 100.683594 102.324219 101.378906 Z M 102.324219 101.378906 "/>
<path style=" stroke:none;fill-rule:nonzero;fill:rgb(0%,0%,0%);fill-opacity:1;" d="M 120.253906 102.324219 C 118.992188 103.082031 118.738281 103.523438 119.433594 103.523438 C 120.378906 103.523438 122.460938 101.945312 122.460938 101.253906 C 122.460938 100.875 122.398438 100.9375 120.253906 102.324219 Z M 120.253906 102.324219 "/>
<path style=" stroke:none;fill-rule:nonzero;fill:rgb(0%,0%,0%);fill-opacity:1;" d="M 116.023438 102.074219 C 116.464844 102.261719 117.035156 102.199219 117.222656 102.011719 C 117.476562 101.820312 117.097656 101.632812 116.402344 101.695312 C 115.707031 101.695312 115.519531 101.882812 116.023438 102.074219 Z M 116.023438 102.074219 "/>
<path style=" stroke:none;fill-rule:nonzero;fill:rgb(0%,0%,0%);fill-opacity:1;" d="M 75.5625 102.957031 C 76.003906 103.398438 76.507812 103.589844 76.695312 103.398438 C 76.886719 103.210938 76.570312 102.832031 75.9375 102.640625 C 75.054688 102.261719 74.992188 102.324219 75.5625 102.957031 Z M 75.5625 102.957031 "/>
<path style=" stroke:none;fill-rule:nonzero;fill:rgb(0%,0%,0%);fill-opacity:1;" d="M 83.957031 104.472656 C 84.777344 105.355469 85.597656 106.050781 85.722656 106.050781 C 85.914062 106.050781 85.40625 105.355469 84.585938 104.472656 C 83.765625 103.589844 82.945312 102.894531 82.820312 102.894531 C 82.628906 102.894531 83.136719 103.589844 83.957031 104.472656 Z M 83.957031 104.472656 "/>
<path style=" stroke:none;fill-rule:nonzero;fill:rgb(0%,0%,0%);fill-opacity:1;" d="M 124.355469 103.144531 C 124.355469 103.273438 124.796875 103.589844 125.367188 103.777344 C 125.871094 103.96875 126.125 103.902344 125.933594 103.523438 C 125.554688 102.894531 124.355469 102.640625 124.355469 103.144531 Z M 124.355469 103.144531 "/>
<path style=" stroke:none;fill-rule:nonzero;fill:rgb(0%,0%,0%);fill-opacity:1;" d="M 103.460938 104.34375 C 102.640625 104.976562 101.378906 107.3125 101.820312 107.3125 C 101.945312 107.3125 102.640625 106.429688 103.398438 105.417969 C 104.976562 103.335938 104.976562 103.210938 103.460938 104.34375 Z M 103.460938 104.34375 "/>
<path style=" stroke:none;fill-rule:nonzero;fill:rgb(0%,0%,0%);fill-opacity:1;" d="M 115.835938 104.15625 C 115.015625 104.535156 114.886719 104.722656 115.519531 104.722656 C 116.023438 104.722656 116.90625 104.472656 117.414062 104.15625 C 118.546875 103.398438 117.539062 103.398438 115.835938 104.15625 Z M 115.835938 104.15625 "/>
<path style=" stroke:none;fill-rule:nonzero;fill:rgb(0%,0%,0%);fill-opacity:1;" d="M 124.355469 105.734375 C 123.472656 106.238281 123.09375 106.617188 123.472656 106.679688 C 123.789062 106.679688 124.671875 106.238281 125.367188 105.734375 C 126.882812 104.597656 126.375 104.535156 124.355469 105.734375 Z M 124.355469 105.734375 "/>
<path style=" stroke:none;fill-rule:nonzero;fill:rgb(0%,0%,0%);fill-opacity:1;" d="M 85.21875 106.933594 C 85.21875 107.058594 85.660156 107.375 86.230469 107.566406 C 86.734375 107.753906 86.984375 107.691406 86.796875 107.3125 C 86.417969 106.679688 85.21875 106.429688 85.21875 106.933594 Z M 85.21875 106.933594 "/>
<path style=" stroke:none;fill-rule:nonzero;fill:rgb(0%,0%,0%);fill-opacity:1;" d="M 120.253906 107.3125 C 119.433594 107.691406 119.304688 107.878906 119.9375 107.878906 C 120.441406 107.878906 121.328125 107.628906 121.832031 107.3125 C 122.96875 106.554688 121.957031 106.554688 120.253906 107.3125 Z M 120.253906 107.3125 "/>
<path style=" stroke:none;fill-rule:nonzero;fill:rgb(0%,0%,0%);fill-opacity:1;" d="M 90.898438 110.027344 C 90.898438 110.53125 91.277344 111.289062 91.785156 111.667969 C 92.542969 112.300781 92.605469 112.171875 92.351562 111.101562 C 91.910156 109.523438 90.898438 108.765625 90.898438 110.027344 Z M 90.898438 110.027344 "/>
<path style=" stroke:none;fill-rule:nonzero;fill:rgb(0%,0%,0%);fill-opacity:1;" d="M 130.667969 119.496094 C 128.394531 120.632812 128.207031 123.347656 130.289062 124.671875 C 131.742188 125.617188 132.058594 125.617188 134.644531 124.484375 C 136.160156 123.789062 137.675781 122.90625 137.863281 122.527344 C 138.117188 122.148438 137.296875 122.398438 136.097656 123.15625 C 133.507812 124.671875 130.480469 124.546875 130.164062 122.90625 C 130.039062 122.210938 130.351562 121.832031 131.171875 121.832031 C 133.066406 121.832031 134.457031 121.136719 134.457031 120.253906 C 134.457031 119.8125 134.015625 119.242188 133.445312 119.054688 C 132.246094 118.613281 132.5625 118.546875 130.667969 119.496094 Z M 132.878906 120.570312 C 132.6875 120.882812 132.246094 121.199219 131.867188 121.199219 C 131.550781 121.199219 131.300781 120.882812 131.300781 120.570312 C 131.300781 120.191406 131.742188 119.9375 132.308594 119.9375 C 132.816406 119.9375 133.066406 120.191406 132.878906 120.570312 Z M 132.878906 120.570312 "/>
<path style=" stroke:none;fill-rule:nonzero;fill:rgb(0%,0%,0%);fill-opacity:1;" d="M 95.507812 130.984375 C 95.128906 133.382812 94.625 135.90625 94.371094 136.476562 C 94.121094 137.109375 94.183594 137.613281 94.5625 137.613281 C 95.320312 137.613281 96.769531 130.859375 96.453125 128.460938 C 96.328125 127.132812 96.011719 127.828125 95.507812 130.984375 Z M 95.507812 130.984375 "/>
<path style=" stroke:none;fill-rule:nonzero;fill:rgb(0%,0%,0%);fill-opacity:1;" d="M 111.101562 134.078125 C 111.101562 134.203125 111.542969 134.519531 112.109375 134.707031 C 112.613281 134.898438 112.867188 134.835938 112.679688 134.457031 C 112.300781 133.824219 111.101562 133.574219 111.101562 134.078125 Z M 111.101562 134.078125 "/>
<path style=" stroke:none;fill-rule:nonzero;fill:rgb(0%,0%,0%);fill-opacity:1;" d="M 130.417969 134.394531 C 130.226562 134.707031 130.480469 135.277344 130.984375 135.71875 C 131.488281 136.160156 131.742188 136.792969 131.488281 137.171875 C 131.238281 137.550781 131.425781 137.613281 131.867188 137.359375 C 132.4375 136.980469 132.4375 136.601562 131.679688 135.78125 C 131.109375 135.152344 130.859375 134.457031 131.109375 134.265625 C 131.300781 134.015625 131.363281 133.824219 131.109375 133.824219 C 130.921875 133.824219 130.605469 134.078125 130.417969 134.394531 Z M 130.417969 134.394531 "/>
<path style=" stroke:none;fill-rule:nonzero;fill:rgb(0%,0%,0%);fill-opacity:1;" d="M 109.207031 135.972656 C 109.207031 136.097656 109.710938 136.601562 110.34375 137.042969 C 111.289062 137.863281 111.351562 137.800781 110.53125 136.792969 C 109.710938 135.78125 109.207031 135.464844 109.207031 135.972656 Z M 109.207031 135.972656 "/>
<path style=" stroke:none;fill-rule:nonzero;fill:rgb(0%,0%,0%);fill-opacity:1;" d="M 140.265625 137.296875 C 140.265625 138.308594 140.390625 138.6875 140.578125 138.054688 C 140.707031 137.484375 140.707031 136.601562 140.578125 136.160156 C 140.390625 135.78125 140.265625 136.222656 140.265625 137.296875 Z M 140.265625 137.296875 "/>
</g>
</svg>
