<?xml version="1.0" standalone="no"?>
<!DOCTYPE svg PUBLIC "-//W3C//DTD SVG 20010904//EN"
 "http://www.w3.org/TR/2001/REC-SVG-20010904/DTD/svg10.dtd">
<svg version="1.0" xmlns="http://www.w3.org/2000/svg"
 width="320.000000pt" height="320.000000pt" viewBox="0 0 320.000000 320.000000"
 preserveAspectRatio="xMidYMid meet">

<g transform="translate(0.000000,320.000000) scale(0.100000,-0.100000)"
fill="#000000" stroke="none">
<path d="M1625 2193 c-23 -13 -32 -13 -48 -3 -14 8 -22 9 -30 1 -7 -7 -14 -7
-24 0 -9 8 -21 8 -42 0 -16 -7 -35 -12 -42 -11 -55 8 -53 -35 3 -96 56 -61 85
-75 165 -83 7 -1 10 -8 6 -18 -6 -15 -5 -16 9 -3 9 8 14 18 12 21 -2 4 8 10
24 14 15 3 44 19 64 36 33 26 40 28 65 17 15 -7 31 -17 35 -23 5 -6 8 -5 8 3
0 7 -15 19 -33 28 -18 8 -48 38 -67 66 -41 60 -65 72 -105 51z m-109 -11 c6
-4 14 -29 18 -57 4 -27 8 -60 10 -72 4 -19 1 -21 -14 -13 -10 5 -28 22 -39 36
-23 29 -27 25 -11 -9 6 -12 -7 -2 -29 23 -42 46 -50 68 -28 74 6 2 26 8 42 14
39 13 38 13 51 4z m90 -8 c65 16 76 13 110 -35 l33 -47 -22 -19 c-38 -34 -71
-53 -91 -53 -19 0 -19 1 2 23 12 13 22 27 22 33 0 5 -12 -6 -26 -23 -14 -18
-30 -33 -35 -33 -5 0 -10 15 -10 33 l-1 32 -7 -30 -6 -30 -15 34 c-15 38 -18
85 -6 116 5 15 9 17 15 6 6 -9 18 -12 37 -7z"/>
<path d="M1491 2135 c-1 -19 33 -85 44 -85 3 0 -2 15 -12 33 -10 17 -21 41
-24 52 l-7 20 -1 -20z"/>
<path d="M1715 2015 c-16 -8 -23 -14 -14 -15 8 0 24 7 35 15 23 18 18 18 -21
0z"/>
<path d="M1820 2000 c-9 -6 -10 -10 -3 -10 6 0 15 5 18 10 8 12 4 12 -15 0z"/>
<path d="M1201 1953 c0 -11 3 -13 6 -5 2 6 10 9 15 6 7 -4 8 -2 4 4 -11 18
-26 14 -25 -5z"/>
<path d="M1560 1948 c0 -9 5 -20 10 -23 13 -8 13 5 0 25 -8 13 -10 13 -10 -2z"/>
<path d="M1260 1925 c13 -14 26 -25 28 -25 3 0 -5 11 -18 25 -13 14 -26 25
-28 25 -3 0 5 -11 18 -25z"/>
<path d="M1894 1932 c-6 -4 -14 -16 -18 -26 -7 -20 -7 -20 15 0 23 20 27 20
47 -5 10 -13 10 -11 1 12 -12 27 -25 33 -45 19z"/>
<path d="M1850 1905 c-7 -9 -11 -17 -9 -20 3 -2 10 5 17 15 14 24 10 26 -8 5z"/>
<path d="M1896 1883 c-6 -14 -5 -15 5 -6 7 7 10 15 7 18 -3 3 -9 -2 -12 -12z"/>
<path d="M1561 1874 c0 -11 3 -14 6 -6 3 7 2 16 -1 19 -3 4 -6 -2 -5 -13z"/>
<path d="M1646 1874 c-3 -8 -2 -13 3 -9 5 3 12 -1 14 -7 4 -8 6 -7 6 4 1 23
-15 32 -23 12z"/>
<path d="M1916 1863 c-6 -14 -5 -15 5 -6 7 7 10 15 7 18 -3 3 -9 -2 -12 -12z"/>
<path d="M1834 1826 c-3 -14 -1 -33 5 -43 7 -12 10 -14 11 -4 0 8 8 23 17 33
15 17 15 20 3 28 -23 15 -29 12 -36 -14z m26 -5 c0 -6 -4 -13 -10 -16 -5 -3
-10 1 -10 9 0 9 5 16 10 16 6 0 10 -4 10 -9z"/>
<path d="M1936 1833 c-6 -14 -5 -15 5 -6 7 7 10 15 7 18 -3 3 -9 -2 -12 -12z"/>
<path d="M1420 1819 c0 -11 5 -17 10 -14 6 3 10 2 10 -2 0 -5 7 -18 15 -29 10
-11 8 -2 -5 24 -23 47 -30 52 -30 21z"/>
<path d="M1551 1824 c0 -11 3 -14 6 -6 3 7 2 16 -1 19 -3 4 -6 -2 -5 -13z"/>
<path d="M1616 1815 c-9 -26 -7 -32 5 -12 6 10 9 21 6 23 -2 3 -7 -2 -11 -11z"/>
<path d="M1680 1815 c0 -5 5 -17 10 -25 5 -8 10 -10 10 -5 0 6 -5 17 -10 25
-5 8 -10 11 -10 5z"/>
<path d="M1894 1810 c-12 -5 -25 -13 -28 -19 -4 -5 7 -3 24 5 16 9 30 17 30
20 0 5 0 5 -26 -6z"/>
<path d="M1541 1774 c0 -11 3 -14 6 -6 3 7 2 16 -1 19 -3 4 -6 -2 -5 -13z"/>
<path d="M1411 1764 c0 -11 3 -14 6 -6 3 7 2 16 -1 19 -3 4 -6 -2 -5 -13z"/>
<path d="M1073 1757 c0 -7 9 -14 20 -14 11 -1 18 -1 16 0 -2 2 -11 8 -20 15
-12 9 -16 9 -16 -1z"/>
<path d="M1603 1720 c0 -30 2 -43 4 -27 2 15 2 39 0 55 -2 15 -4 2 -4 -28z"/>
<path d="M1782 1704 c-31 -33 -57 -52 -64 -48 -6 4 -8 3 -5 -3 4 -6 -2 -22
-13 -34 l-19 -24 -2 55 -2 55 -6 -65 c-3 -36 -3 -66 1 -68 4 -2 2 -15 -4 -30
-13 -33 -14 -51 -16 -169 l-2 -93 -40 -20 c-47 -24 -80 -26 -80 -4 0 9 -5 12
-11 8 -27 -16 48 173 77 197 16 13 19 33 4 24 -6 -4 -26 -37 -45 -73 l-34 -67
-1 47 c0 26 -3 49 -7 51 -5 3 -6 -18 -4 -45 2 -39 0 -49 -9 -43 -9 5 -11 4 -6
-4 4 -6 12 -9 17 -6 15 10 10 -12 -6 -28 -8 -9 -23 -13 -34 -10 -13 3 -29 -4
-45 -21 -50 -49 -21 -96 37 -62 26 15 32 15 45 3 12 -13 19 -13 55 1 23 9 51
22 62 29 18 12 21 10 35 -19 19 -41 60 -50 83 -18 14 21 16 21 40 5 23 -15 28
-15 63 0 21 9 46 23 56 32 10 9 19 12 20 7 1 -9 4 -35 7 -61 2 -19 22 -16 48
9 13 12 23 16 23 10 0 -7 5 -12 10 -12 6 0 10 23 10 50 0 28 -4 50 -10 50 -5
0 -10 -12 -10 -27 0 -32 -32 -79 -47 -70 -6 4 -8 18 -5 32 4 21 0 27 -17 32
-13 3 -20 11 -17 19 3 8 -1 14 -10 14 -12 0 -15 -7 -12 -24 4 -19 -2 -28 -26
-41 -38 -20 -80 -17 -84 8 -3 12 3 17 20 17 39 0 63 32 33 44 -26 10 -64 -12
-78 -46 -27 -64 -68 -75 -81 -22 -6 22 -1 33 28 63 36 37 75 112 76 144 0 11
8 17 23 18 16 1 18 2 5 6 -11 3 -18 14 -18 28 0 13 -2 30 -5 37 -4 9 4 19 17
26 22 11 22 11 -4 6 -27 -6 -31 -1 -27 33 0 4 -9 11 -22 15 -21 8 -19 11 35
67 48 51 65 73 54 71 -2 -1 -27 -26 -56 -56z m-49 -117 c-9 -12 -11 -16 -3 -9
21 18 33 15 27 -8 -3 -11 -1 -20 5 -20 5 0 6 -4 3 -10 -3 -5 -13 -10 -21 -10
-8 0 -13 4 -10 9 3 4 -6 6 -21 3 -22 -4 -25 -2 -20 12 4 10 7 21 7 26 0 15 31
40 41 34 6 -4 3 -15 -8 -27z m30 -110 c-7 -58 -40 -130 -70 -159 l-26 -23 7
90 c9 119 14 138 35 129 9 -3 25 -8 36 -10 16 -4 16 -3 -2 5 -30 13 -29 19 1
14 22 -4 23 -9 19 -46z m62 -187 c-3 -5 -10 -10 -16 -10 -5 0 -9 5 -9 10 0 6
7 10 16 10 8 0 12 -4 9 -10z m-345 -12 c-1 -18 -25 -48 -39 -48 -12 0 -14 19
-5 44 7 19 44 22 44 4z"/>
<path d="M1728 1483 c7 -3 16 -2 19 1 4 3 -2 6 -13 5 -11 0 -14 -3 -6 -6z"/>
<path d="M1342 1730 c0 -14 2 -19 5 -12 2 6 2 18 0 25 -3 6 -5 1 -5 -13z"/>
<path d="M1402 1720 c0 -14 2 -19 5 -12 2 6 2 18 0 25 -3 6 -5 1 -5 -13z"/>
<path d="M1532 1720 c0 -14 2 -19 5 -12 2 6 2 18 0 25 -3 6 -5 1 -5 -13z"/>
<path d="M1656 1727 c3 -10 9 -15 12 -12 3 3 0 11 -7 18 -10 9 -11 8 -5 -6z"/>
<path d="M1711 1724 c0 -11 3 -14 6 -6 3 7 2 16 -1 19 -3 4 -6 -2 -5 -13z"/>
<path d="M1481 1704 c0 -11 3 -14 6 -6 3 7 2 16 -1 19 -3 4 -6 -2 -5 -13z"/>
<path d="M1297 1702 c-5 -7 27 -52 37 -52 4 0 0 14 -9 30 -16 31 -21 35 -28
22z"/>
<path d="M1986 1694 c-11 -8 -16 -14 -10 -14 13 0 39 18 34 24 -3 2 -14 -2
-24 -10z"/>
<path d="M1347 1668 c-3 -18 -1 -37 4 -42 5 -6 9 7 9 32 0 50 -6 54 -13 10z"/>
<path d="M1522 1670 c0 -14 2 -19 5 -12 2 6 2 18 0 25 -3 6 -5 1 -5 -13z"/>
<path d="M1160 1674 c0 -6 15 -23 33 -40 l32 -29 -30 35 c-16 19 -31 37 -32
39 -2 2 -3 0 -3 -5z"/>
<path d="M1392 1655 c0 -16 2 -22 5 -12 2 9 2 23 0 30 -3 6 -5 -1 -5 -18z"/>
<path d="M1925 1670 c-13 -6 -15 -9 -5 -9 8 0 22 4 30 9 18 12 2 12 -25 0z"/>
<path d="M1230 1667 c0 -3 12 -12 26 -22 15 -9 23 -12 20 -6 -7 11 -46 35 -46
28z"/>
<path d="M1981 1647 c-13 -21 -12 -21 5 -5 10 10 16 20 13 22 -3 3 -11 -5 -18
-17z"/>
<path d="M1107 1650 c10 -11 8 -16 -10 -24 -36 -18 -67 -91 -67 -161 0 -68 29
-145 55 -145 13 0 12 5 -6 29 -30 41 -38 146 -15 205 23 59 41 74 65 52 27
-24 38 -71 71 -301 35 -239 45 -277 68 -273 12 2 25 37 48 123 59 226 89 309
129 357 14 16 25 35 25 41 -1 7 -7 1 -15 -13 -19 -34 -19 -12 1 35 18 45 12
72 -7 31 l-14 -30 -7 30 c-7 27 -7 26 -4 -6 4 -40 -2 -62 -14 -55 -4 3 -6 -5
-2 -17 4 -16 2 -19 -8 -13 -8 5 -11 4 -7 -2 4 -6 -9 -57 -29 -114 -19 -57 -46
-149 -60 -204 -30 -120 -33 -129 -39 -123 -2 2 -18 98 -35 214 -44 298 -48
312 -106 355 -16 12 -24 16 -17 9z"/>
<path d="M1612 1640 c0 -14 2 -19 5 -12 2 6 2 18 0 25 -3 6 -5 1 -5 -13z"/>
<path d="M1855 1650 c-13 -5 -14 -9 -5 -9 8 0 24 4 35 9 13 5 14 9 5 9 -8 0
-24 -4 -35 -9z"/>
<path d="M1481 1624 c0 -11 3 -14 6 -6 3 7 2 16 -1 19 -3 4 -6 -2 -5 -13z"/>
<path d="M1790 1630 c-18 -12 -2 -12 25 0 13 6 15 9 5 9 -8 0 -22 -4 -30 -9z"/>
<path d="M1910 1615 c-14 -8 -20 -14 -14 -15 5 0 19 7 30 15 24 18 16 19 -16
0z"/>
<path d="M1505 1545 c-4 -42 -5 -78 -3 -81 3 -2 8 30 12 72 4 42 5 78 2 81 -2
2 -7 -30 -11 -72z"/>
<path d="M1320 1607 c0 -2 15 -16 33 -33 l32 -29 -29 33 c-28 30 -36 37 -36
29z"/>
<path d="M1375 1587 c10 -15 20 -25 23 -22 3 3 -5 16 -17 28 l-23 22 17 -28z"/>
<path d="M1621 1594 c0 -11 3 -14 6 -6 3 7 2 16 -1 19 -3 4 -6 -2 -5 -13z"/>
<path d="M1905 1579 c-20 -12 -24 -19 -13 -19 15 0 48 25 48 36 0 6 -1 5 -35
-17z"/>
<path d="M1838 1583 c7 -3 16 -2 19 1 4 3 -2 6 -13 5 -11 0 -14 -3 -6 -6z"/>
<path d="M1197 1569 c7 -7 15 -10 18 -7 3 3 -2 9 -12 12 -14 6 -15 5 -6 -5z"/>
<path d="M1330 1545 c13 -14 26 -25 28 -25 3 0 -5 11 -18 25 -13 14 -26 25
-28 25 -3 0 5 -11 18 -25z"/>
<path d="M1970 1566 c0 -2 7 -7 16 -10 8 -3 12 -2 9 4 -6 10 -25 14 -25 6z"/>
<path d="M1639 1547 c-13 -10 -33 -47 -26 -47 2 0 13 14 25 30 25 33 25 35 1
17z"/>
<path d="M1835 1550 c-13 -6 -15 -9 -5 -9 8 0 22 4 30 9 18 12 2 12 -25 0z"/>
<path d="M1970 1525 c-14 -8 -20 -14 -14 -15 5 0 19 7 30 15 24 18 16 19 -16
0z"/>
<path d="M1350 1506 c0 -2 7 -7 16 -10 8 -3 12 -2 9 4 -6 10 -25 14 -25 6z"/>
<path d="M1905 1500 c-13 -6 -15 -9 -5 -9 8 0 22 4 30 9 18 12 2 12 -25 0z"/>
<path d="M1440 1457 c0 -8 6 -20 14 -26 12 -10 13 -8 9 9 -7 25 -23 37 -23 17z"/>
<path d="M2070 1307 c-36 -18 -39 -61 -6 -82 23 -15 28 -15 69 3 24 11 48 25
51 31 4 6 -9 2 -28 -10 -41 -24 -89 -22 -94 4 -2 11 3 17 16 17 30 0 52 11 52
25 0 7 -7 16 -16 19 -19 7 -14 8 -44 -7z m35 -17 c-3 -5 -10 -10 -16 -10 -5 0
-9 5 -9 10 0 6 7 10 16 10 8 0 12 -4 9 -10z"/>
<path d="M1513 1125 c-6 -38 -14 -78 -18 -87 -4 -10 -3 -18 3 -18 12 0 35 107
30 145 -2 21 -7 10 -15 -40z"/>
<path d="M1760 1076 c0 -2 7 -7 16 -10 8 -3 12 -2 9 4 -6 10 -25 14 -25 6z"/>
<path d="M2066 1071 c-3 -5 1 -14 9 -21 8 -7 12 -17 8 -23 -4 -6 -1 -7 6 -3 9
6 9 12 -3 25 -9 10 -13 21 -9 24 3 4 4 7 0 7 -3 0 -8 -4 -11 -9z"/>
<path d="M1730 1046 c0 -2 8 -10 18 -17 15 -13 16 -12 3 4 -13 16 -21 21 -21
13z"/>
<path d="M2222 1025 c0 -16 2 -22 5 -12 2 9 2 23 0 30 -3 6 -5 -1 -5 -18z"/>
</g>
</svg>
